<svg id="visual" viewBox="0 0 960 540" width="960" height="540" xmlns="http://www.w3.org/2000/svg" xmlns:xlink="http://www.w3.org/1999/xlink" version="1.1"><path d="M0 387L22.8 387.7C45.7 388.3 91.3 389.7 137 378.7C182.7 367.7 228.3 344.3 274 340C319.7 335.7 365.3 350.3 411.2 354.3C457 358.3 503 351.7 548.8 355.5C594.7 359.3 640.3 373.7 686 373.3C731.7 373 777.3 358 823 357.3C868.7 356.7 914.3 370.3 937.2 377.2L960 384L960 541L937.2 541C914.3 541 868.7 541 823 541C777.3 541 731.7 541 686 541C640.3 541 594.7 541 548.8 541C503 541 457 541 411.2 541C365.3 541 319.7 541 274 541C228.3 541 182.7 541 137 541C91.3 541 45.7 541 22.8 541L0 541Z" fill="#b469fa"></path><path d="M0 371L22.8 371.2C45.7 371.3 91.3 371.7 137 380.5C182.7 389.3 228.3 406.7 274 406.2C319.7 405.7 365.3 387.3 411.2 377.8C457 368.3 503 367.7 548.8 375.3C594.7 383 640.3 399 686 399.7C731.7 400.3 777.3 385.7 823 385.7C868.7 385.7 914.3 400.3 937.2 407.7L960 415L960 541L937.2 541C914.3 541 868.7 541 823 541C777.3 541 731.7 541 686 541C640.3 541 594.7 541 548.8 541C503 541 457 541 411.2 541C365.3 541 319.7 541 274 541C228.3 541 182.7 541 137 541C91.3 541 45.7 541 22.8 541L0 541Z" fill="#9465ef"></path><path d="M0 413L22.8 411.5C45.7 410 91.3 407 137 404.2C182.7 401.3 228.3 398.7 274 402.2C319.7 405.7 365.3 415.3 411.2 423.2C457 431 503 437 548.8 441.8C594.7 446.7 640.3 450.3 686 446.7C731.7 443 777.3 432 823 431C868.7 430 914.3 439 937.2 443.5L960 448L960 541L937.2 541C914.3 541 868.7 541 823 541C777.3 541 731.7 541 686 541C640.3 541 594.7 541 548.8 541C503 541 457 541 411.2 541C365.3 541 319.7 541 274 541C228.3 541 182.7 541 137 541C91.3 541 45.7 541 22.8 541L0 541Z" fill="#7460e3"></path><path d="M0 434L22.8 439.7C45.7 445.3 91.3 456.7 137 463.8C182.7 471 228.3 474 274 474.8C319.7 475.7 365.3 474.3 411.2 476.2C457 478 503 483 548.8 484.5C594.7 486 640.3 484 686 479.8C731.7 475.7 777.3 469.3 823 467.7C868.7 466 914.3 469 937.2 470.5L960 472L960 541L937.2 541C914.3 541 868.7 541 823 541C777.3 541 731.7 541 686 541C640.3 541 594.7 541 548.8 541C503 541 457 541 411.2 541C365.3 541 319.7 541 274 541C228.3 541 182.7 541 137 541C91.3 541 45.7 541 22.8 541L0 541Z" fill="#515bd6"></path><path d="M0 509L22.8 507.3C45.7 505.7 91.3 502.3 137 502.5C182.7 502.7 228.3 506.3 274 503C319.7 499.7 365.3 489.3 411.2 483.7C457 478 503 477 548.8 476.7C594.7 476.3 640.3 476.7 686 479C731.7 481.3 777.3 485.7 823 486.5C868.7 487.3 914.3 484.7 937.2 483.3L960 482L960 541L937.2 541C914.3 541 868.7 541 823 541C777.3 541 731.7 541 686 541C640.3 541 594.7 541 548.8 541C503 541 457 541 411.2 541C365.3 541 319.7 541 274 541C228.3 541 182.7 541 137 541C91.3 541 45.7 541 22.8 541L0 541Z" fill="#2455c7"></path></svg>